<svg width="24" height="24" viewBox="0 0 24 24" fill="none" xmlns="http://www.w3.org/2000/svg">
<path d="M4.62454 23.6771C4.17203 23.5345 3.40031 22.7353 3.26155 22.2657C3.10146 21.7239 3.10146 11.1203 3.26155 10.5784C3.41118 10.072 4.17493 9.30827 4.68134 9.15865C4.89005 9.09698 5.29055 9.04653 5.57134 9.04653H6.08187L6.11771 6.99521C6.15154 5.05903 6.16719 4.90593 6.39665 4.26767C6.73988 3.31298 7.15847 2.64831 7.85527 1.9515C9.69692 0.109854 12.3039 -0.309888 14.6579 0.856226C16.0051 1.52358 17.0535 2.73784 17.6035 4.26767C17.833 4.90593 17.8486 5.05903 17.8825 6.99521L17.9183 9.04653H18.4288C18.7096 9.04653 19.1101 9.09698 19.3188 9.15865C19.8252 9.30827 20.589 10.072 20.7386 10.5784C20.8987 11.1203 20.8987 21.7239 20.7386 22.2657C20.589 22.7721 19.8252 23.5359 19.3188 23.6855C18.8059 23.8371 5.10718 23.8292 4.62454 23.6771L4.62454 23.6771ZM12.667 19.5645L12.9681 19.2957L12.9985 17.979L13.0288 16.6624L13.385 16.3062C13.8273 15.8639 13.9682 15.4526 13.9176 14.7523C13.7497 12.4318 10.2505 12.4318 10.0826 14.7523C10.0319 15.4526 10.1729 15.8639 10.6152 16.3062L10.9714 16.6624L11.0017 17.979L11.032 19.2957L11.3331 19.5645C11.5585 19.7657 11.7262 19.8333 12.0001 19.8333C12.2739 19.8333 12.4417 19.7657 12.667 19.5645ZM15.9644 7.49616C15.9644 6.64345 15.9193 5.70155 15.8641 5.40304C15.4799 3.32452 13.4273 1.86449 11.3886 2.21951C9.74386 2.50593 8.43476 3.78725 8.13607 5.40304C8.08088 5.70155 8.03573 6.64345 8.03573 7.49616V9.04653H12.0001H15.9644V7.49616Z" fill="#2589BD"/>
</svg>
