<svg width="271" height="96" viewBox="0 0 271 96" fill="none" xmlns="http://www.w3.org/2000/svg">
<g clip-path="url(#clip0)">
<path d="M29.518 62.3377C27.3198 62.3377 23.2376 62.3377 21.6675 62.3377C20.0973 62.3377 19.1553 61.7143 19.1553 59.8442C19.1553 59.2208 19.1553 58.9091 19.1553 58.2857C19.1553 57.3507 20.0973 56.4156 21.0394 56.4156C21.3534 56.4156 21.3534 56.4156 21.6675 56.4156C27.6339 56.4156 33.2862 56.4156 39.2526 56.4156C40.8227 56.4156 41.7648 57.6623 41.7648 58.9091C41.7648 64.8312 41.7648 70.4416 41.7648 76.3636C41.7648 78.2338 41.1367 78.8571 39.2526 78.8571C36.1124 78.8571 36.1124 79.1688 36.4264 73.2468L36.1124 68.5714C36.1124 68.2597 35.7984 67.6364 35.4844 67.6364C35.4844 67.6364 35.1704 67.3247 34.8563 67.6364C34.5423 67.6364 34.5423 67.948 34.5423 67.948C32.0301 70.4416 26.6918 75.7403 22.9235 79.4805C19.7833 82.5974 19.7833 87.8961 22.9235 91.3247C25.7497 94.1299 29.832 94.1299 32.6582 91.3247L44.905 79.1688C46.1611 77.9221 46.7891 76.0519 46.7891 74.4935V59.2208C46.7891 54.8571 43.0209 51.1169 38.6246 51.1169H23.5516C21.6675 51.1169 20.0973 51.7403 18.8413 52.987L6.59445 65.1429C4.08229 67.6364 4.08229 72 6.59445 74.8052C10.0487 78.2338 16.0151 78.2338 19.4693 74.8052L30.46 63.8961C30.46 63.8961 30.7741 63.5844 30.46 63.2727C30.46 62.3377 30.146 62.3377 29.518 62.3377Z" fill="white"/>
<path d="M61.8622 68.2597C61.8622 68.5714 61.8622 68.5714 61.8622 68.2597C61.8622 70.4416 61.8622 74.4935 61.8622 76.052C61.8622 77.6104 61.2342 78.5455 59.3501 78.5455C58.722 78.5455 58.408 78.5455 57.78 78.5455C56.8379 78.5455 55.8958 77.6104 55.8958 76.6753C55.8958 76.3636 55.8958 76.3636 55.8958 76.052C55.8958 70.1299 55.8958 64.5195 55.8958 58.5974C55.8958 57.039 57.1519 56.1039 58.408 56.1039C64.3744 56.1039 70.0268 56.1039 75.9932 56.1039C77.8773 56.1039 78.5053 56.7273 78.5053 58.5974C78.5053 61.7143 78.8194 61.7143 72.853 61.4026L68.1427 61.7143C67.8286 61.7143 67.2006 62.026 67.2006 62.3377C67.2006 62.3377 66.8866 62.6494 67.2006 62.961C67.2006 63.2727 67.5146 63.2727 67.5146 63.2727C70.0268 65.7662 75.3651 71.0649 79.1334 74.8052C82.2736 77.9221 87.6119 77.9221 91.0662 74.8052C93.8924 72 93.8924 67.9481 91.0662 65.1429L78.8194 52.987C77.5633 51.7403 75.6792 51.1169 74.1091 51.1169H58.722C54.3257 51.1169 50.5575 54.8571 50.5575 59.2208V74.4935C50.5575 76.3636 51.1855 77.9221 52.4416 79.1688L64.6884 91.3247C67.2006 93.8182 71.5969 93.8182 74.4231 91.3247C77.8773 87.8961 77.8773 81.974 74.4231 78.5455L63.4323 67.6364C63.4323 67.6364 63.1183 67.3247 62.8043 67.6364C61.8622 67.3247 61.8622 67.9481 61.8622 68.2597Z" fill="white"/>
<path d="M29.518 36.1559C29.518 36.4675 29.518 36.1559 29.518 36.1559C27.3199 36.1559 23.2376 36.1559 21.6675 36.1559C20.0974 36.1559 19.1553 36.7792 19.1553 38.6494C19.1553 39.2727 19.1553 39.5844 19.1553 40.2078C19.1553 41.1429 20.0974 42.0779 21.0395 42.0779C21.3535 42.0779 21.3535 42.0779 21.6675 42.0779C27.6339 42.0779 33.2863 42.0779 39.2527 42.0779C40.8228 42.0779 41.7648 40.8312 41.7648 39.5844C41.7648 33.6623 41.7648 28.052 41.7648 22.1299C41.7648 20.2597 41.1368 19.6364 39.2527 19.6364C36.1125 19.6364 36.1125 19.3247 36.4265 25.2468L36.1125 29.9221C36.1125 30.2338 35.7984 30.8571 35.4844 30.8571C35.4844 30.8571 35.1704 31.1688 34.8564 30.8571C34.5424 30.8571 34.5424 30.5455 34.5424 30.5455C32.0302 28.052 26.6918 22.7533 22.9236 19.013C19.7834 15.8961 19.7834 10.5974 22.9236 7.16884C25.7498 4.36364 29.8321 4.36364 32.6582 7.16884L44.9051 19.3247C46.1611 20.5714 46.7892 22.4416 46.7892 24V39.2727C46.7892 43.6364 43.0209 47.3766 38.6246 47.3766H23.2376C21.3535 47.3766 19.7834 46.7533 18.5273 45.5065L6.28049 33.3507C3.76832 30.8571 3.76832 26.4935 6.28049 23.6883C9.73472 20.2597 15.7011 20.2597 19.1553 23.6883L30.1461 34.5974C30.1461 34.5974 30.4601 34.9091 30.1461 35.2208C30.4601 36.1559 30.1461 36.1559 29.518 36.1559Z" fill="white"/>
<path d="M61.8622 30.2337C61.8622 30.2337 61.8622 29.922 61.8622 30.2337C61.8622 28.0519 61.8622 24 61.8622 22.4415C61.8622 20.8831 61.2342 19.948 59.3501 19.948C58.722 19.948 58.408 19.948 57.78 19.948C56.8379 19.948 55.8958 20.8831 55.8958 21.8181C55.8958 22.1298 55.8958 22.1298 55.8958 22.4415C55.8958 28.3636 55.8958 33.974 55.8958 39.8961C55.8958 41.4545 57.1519 42.3896 58.408 42.3896C64.3744 42.3896 70.0268 42.3896 75.9932 42.3896C77.8773 42.3896 78.5053 41.7662 78.5053 39.8961C78.5053 36.7792 78.8194 36.7792 72.853 37.0909L68.1427 36.7792C67.8286 36.7792 67.2006 36.4675 67.2006 36.1558C67.2006 36.1558 66.8866 35.8441 67.2006 35.5324C67.2006 35.2207 67.5146 35.2207 67.5146 35.2207C70.0268 32.7272 75.3651 27.4285 79.1334 23.6883C82.2736 20.5714 87.6119 20.5714 91.0662 23.6883C93.8924 26.4935 93.8924 30.5454 91.0662 33.3506L78.8194 45.5065C77.5633 46.7532 75.6792 47.3766 74.1091 47.3766H58.722C54.3257 47.3766 50.5575 43.6363 50.5575 39.2727V24.3117C50.5575 22.4415 51.1855 20.8831 52.4416 19.6363L64.6884 7.48048C67.2006 4.98697 71.5969 4.98697 74.4231 7.48048C77.8773 10.9091 77.8773 16.8311 74.4231 20.2597L63.4323 31.1688C63.4323 31.1688 63.1183 31.4805 62.8043 31.1688C61.8622 31.1688 61.8622 30.5454 61.8622 30.2337Z" fill="white"/>
<path d="M108.965 32.1039C117.444 32.1039 121.84 38.6493 121.84 45.1948C121.84 51.7402 117.444 58.2857 108.965 58.2857H99.5447V32.1039H108.965ZM108.965 54.5454C114.932 54.5454 118.072 49.8701 118.072 45.1948C118.072 40.5195 114.932 35.8441 108.965 35.8441H103.313V54.5454H108.965Z" fill="white"/>
<path d="M134.087 39.5844H130.005V55.1688H134.087V58.2857H122.782V55.1688H126.865V39.5844H122.782V36.4675H134.087V39.5844Z" fill="white"/>
<path d="M140.053 47.0649H143.822C146.334 47.0649 147.904 45.1948 147.904 43.3246C147.904 41.4545 146.648 39.5844 143.822 39.5844H139.111V58.2857H135.971V36.4675H143.822C148.532 36.4675 151.044 39.8961 151.044 43.3246C151.044 46.4415 149.16 49.2467 145.392 49.8701L152.3 57.974H148.218L140.367 48.3117V47.0649H140.053Z" fill="white"/>
<path d="M155.754 55.1688H165.803V58.2857H152.3V36.4675H165.803V39.5844H155.754V45.8181H165.803V48.935H155.754V55.1688Z" fill="white"/>
<path d="M170.199 39.5844C172.084 37.7143 174.91 36.4675 177.736 36.4675C182.76 36.4675 186.843 39.5844 188.099 44.5714H184.958C183.702 41.4545 181.19 39.5844 177.736 39.5844C175.538 39.5844 173.654 40.5194 172.398 41.7662C171.141 43.3246 170.199 45.1948 170.199 47.3766C170.199 49.5584 171.141 51.4285 172.398 52.987C173.654 54.5454 175.538 55.1688 177.736 55.1688C181.19 55.1688 184.016 53.2987 184.958 49.8701H188.099C186.843 54.8571 182.76 58.2857 177.736 58.2857C174.91 58.2857 172.084 57.0389 170.199 55.1688C168.315 53.2987 167.059 50.4935 167.059 47.3766C167.059 44.2597 168.315 41.4545 170.199 39.5844Z" fill="white"/>
<path d="M194.379 58.2857V39.2727H187.784V36.4675H204.114V39.2727H197.833V58.2857H194.379Z" fill="white"/>
<path d="M209.766 58.2857H205.998V32.1039H209.138L217.931 44.8831L226.723 32.1039H229.863V58.2857H226.095V39.8961L218.873 49.8701H216.675L209.766 39.5844V58.2857Z" fill="white"/>
<path d="M235.516 55.1688H245.564V58.2857H232.375V36.4675H245.878V39.5844H235.516V45.8181H245.564V48.935H235.516V55.1688Z" fill="white"/>
<path d="M254.985 36.4675C262.208 36.4675 265.662 41.7662 265.662 47.3766C265.662 52.987 262.208 58.2857 254.985 58.2857H247.135V36.4675H254.985ZM254.985 55.1688C260.009 55.1688 262.522 51.4285 262.522 47.3766C262.522 43.6363 260.009 39.5844 254.985 39.5844H250.275V55.1688H254.985Z" fill="white"/>
<path d="M105.08 74.05C105.08 74.6833 104.85 75.1833 104.39 75.55C103.93 75.9167 103.293 76.1 102.48 76.1C101.693 76.1 101.027 75.9667 100.48 75.7V74.5C100.78 74.6333 101.11 74.7567 101.47 74.87C101.83 74.9767 102.197 75.03 102.57 75.03C102.997 75.03 103.31 74.9467 103.51 74.78C103.71 74.6133 103.81 74.3933 103.81 74.12C103.81 73.82 103.683 73.5833 103.43 73.41C103.177 73.2367 102.807 73.0467 102.32 72.84C102.027 72.7133 101.747 72.5633 101.48 72.39C101.213 72.2167 100.993 71.9967 100.82 71.73C100.647 71.4633 100.56 71.1233 100.56 70.71C100.56 70.0967 100.773 69.62 101.2 69.28C101.633 68.9333 102.21 68.76 102.93 68.76C103.31 68.76 103.663 68.8 103.99 68.88C104.323 68.96 104.657 69.0733 104.99 69.22L104.58 70.25C104.28 70.1233 103.993 70.0233 103.72 69.95C103.453 69.8767 103.177 69.84 102.89 69.84C102.543 69.84 102.28 69.92 102.1 70.08C101.92 70.2333 101.83 70.4333 101.83 70.68C101.83 70.88 101.88 71.0467 101.98 71.18C102.08 71.3133 102.233 71.4367 102.44 71.55C102.653 71.6633 102.927 71.7933 103.26 71.94C103.64 72.1067 103.967 72.28 104.24 72.46C104.513 72.64 104.72 72.8567 104.86 73.11C105.007 73.3633 105.08 73.6767 105.08 74.05ZM108.848 76H105.848V75.27L106.708 74.95V69.92L105.848 69.59V68.86H108.848V69.59L107.988 69.92V74.95L108.848 75.27V76ZM114.279 74.05C114.279 74.6833 114.049 75.1833 113.589 75.55C113.129 75.9167 112.493 76.1 111.679 76.1C110.893 76.1 110.226 75.9667 109.679 75.7V74.5C109.979 74.6333 110.309 74.7567 110.669 74.87C111.029 74.9767 111.396 75.03 111.769 75.03C112.196 75.03 112.509 74.9467 112.709 74.78C112.909 74.6133 113.009 74.3933 113.009 74.12C113.009 73.82 112.883 73.5833 112.629 73.41C112.376 73.2367 112.006 73.0467 111.519 72.84C111.226 72.7133 110.946 72.5633 110.679 72.39C110.413 72.2167 110.193 71.9967 110.019 71.73C109.846 71.4633 109.759 71.1233 109.759 70.71C109.759 70.0967 109.973 69.62 110.399 69.28C110.833 68.9333 111.409 68.76 112.129 68.76C112.509 68.76 112.863 68.8 113.189 68.88C113.523 68.96 113.856 69.0733 114.189 69.22L113.779 70.25C113.479 70.1233 113.193 70.0233 112.919 69.95C112.653 69.8767 112.376 69.84 112.089 69.84C111.743 69.84 111.479 69.92 111.299 70.08C111.119 70.2333 111.029 70.4333 111.029 70.68C111.029 70.88 111.079 71.0467 111.179 71.18C111.279 71.3133 111.433 71.4367 111.639 71.55C111.853 71.6633 112.126 71.7933 112.459 71.94C112.839 72.1067 113.166 72.28 113.439 72.46C113.713 72.64 113.919 72.8567 114.059 73.11C114.206 73.3633 114.279 73.6767 114.279 74.05ZM118.187 76H116.907V69.94H114.857V68.86H120.237V69.94H118.187V76ZM125.39 76H121.33V68.86H125.39V69.93H122.61V71.75H125.21V72.82H122.61V74.92H125.39V76ZM129.977 76L128.017 70.15H127.977C127.983 70.2833 127.993 70.4733 128.007 70.72C128.02 70.96 128.03 71.2233 128.037 71.51C128.05 71.79 128.057 72.0533 128.057 72.3V76H126.907V68.86H128.687L130.567 74.47H130.607L132.567 68.86H134.347V76H133.127V72.24C133.127 72.0133 133.13 71.7667 133.137 71.5C133.15 71.2267 133.16 70.97 133.167 70.73C133.18 70.49 133.19 70.3 133.197 70.16H133.157L131.117 76H129.977ZM140.604 76L139.954 74.11H137.264L136.624 76H135.264L137.884 68.83H139.344L141.964 76H140.604ZM139.004 71.17C138.977 71.0767 138.937 70.95 138.884 70.79C138.83 70.63 138.777 70.4667 138.724 70.3C138.677 70.1267 138.64 69.9833 138.614 69.87C138.58 70.0033 138.537 70.1567 138.484 70.33C138.437 70.5033 138.39 70.6667 138.344 70.82C138.297 70.9733 138.264 71.09 138.244 71.17L137.614 73.01H139.624L139.004 71.17ZM151.34 72.36C151.34 73.5667 151.004 74.4767 150.33 75.09C149.657 75.6967 148.717 76 147.51 76H145.5V68.86H147.72C148.454 68.86 149.09 68.9933 149.63 69.26C150.177 69.5267 150.597 69.92 150.89 70.44C151.19 70.9533 151.34 71.5933 151.34 72.36ZM150 72.4C150 71.5467 149.804 70.92 149.41 70.52C149.024 70.12 148.46 69.92 147.72 69.92H146.78V74.93H147.55C149.184 74.93 150 74.0867 150 72.4ZM156.924 76H152.864V68.86H156.924V69.93H154.144V71.75H156.744V72.82H154.144V74.92H156.924V76ZM163.167 68.86C164.094 68.86 164.767 69.0533 165.187 69.44C165.614 69.8267 165.827 70.36 165.827 71.04C165.827 71.4467 165.741 71.83 165.567 72.19C165.394 72.5433 165.101 72.83 164.687 73.05C164.281 73.2633 163.727 73.37 163.027 73.37H162.317V76H161.037V68.86H163.167ZM163.087 69.92H162.317V72.31H162.897C163.417 72.31 163.817 72.2167 164.097 72.03C164.384 71.8367 164.527 71.5233 164.527 71.09C164.527 70.6967 164.411 70.4033 164.177 70.21C163.944 70.0167 163.581 69.92 163.087 69.92ZM167.229 76V68.86H168.509V74.92H171.489V76H167.229ZM177.137 76L176.487 74.11H173.797L173.157 76H171.797L174.417 68.83H175.877L178.497 76H177.137ZM175.537 71.17C175.51 71.0767 175.47 70.95 175.417 70.79C175.364 70.63 175.31 70.4667 175.257 70.3C175.21 70.1267 175.174 69.9833 175.147 69.87C175.114 70.0033 175.07 70.1567 175.017 70.33C174.97 70.5033 174.924 70.6667 174.877 70.82C174.83 70.9733 174.797 71.09 174.777 71.17L174.147 73.01H176.157L175.537 71.17ZM185.506 76H183.916L180.536 70.4H180.496C180.516 70.7 180.533 71.0233 180.546 71.37C180.566 71.71 180.579 72.0533 180.586 72.4V76H179.436V68.86H181.016L184.386 74.42H184.416C184.403 74.1533 184.389 73.8467 184.376 73.5C184.363 73.1533 184.353 72.8167 184.346 72.49V68.86H185.506V76ZM193.746 72.42C193.746 73.16 193.622 73.8067 193.376 74.36C193.136 74.9067 192.766 75.3333 192.266 75.64C191.766 75.9467 191.139 76.1 190.386 76.1C189.626 76.1 188.996 75.9467 188.496 75.64C188.002 75.3333 187.632 74.9033 187.386 74.35C187.146 73.7967 187.026 73.15 187.026 72.41C187.026 71.6767 187.146 71.0367 187.386 70.49C187.632 69.9367 188.002 69.51 188.496 69.21C188.996 68.9033 189.629 68.75 190.396 68.75C191.149 68.75 191.772 68.9033 192.266 69.21C192.766 69.51 193.136 69.9367 193.376 70.49C193.622 71.0367 193.746 71.68 193.746 72.42ZM188.376 72.42C188.376 73.2267 188.536 73.86 188.856 74.32C189.176 74.78 189.686 75.01 190.386 75.01C191.092 75.01 191.602 74.78 191.916 74.32C192.236 73.86 192.396 73.2267 192.396 72.42C192.396 71.6133 192.239 70.98 191.926 70.52C191.612 70.06 191.102 69.83 190.396 69.83C189.696 69.83 189.182 70.06 188.856 70.52C188.536 70.98 188.376 71.6133 188.376 72.42ZM199.416 74.05C199.416 74.6833 199.186 75.1833 198.726 75.55C198.266 75.9167 197.629 76.1 196.816 76.1C196.029 76.1 195.363 75.9667 194.816 75.7V74.5C195.116 74.6333 195.446 74.7567 195.806 74.87C196.166 74.9767 196.533 75.03 196.906 75.03C197.333 75.03 197.646 74.9467 197.846 74.78C198.046 74.6133 198.146 74.3933 198.146 74.12C198.146 73.82 198.019 73.5833 197.766 73.41C197.513 73.2367 197.143 73.0467 196.656 72.84C196.363 72.7133 196.083 72.5633 195.816 72.39C195.549 72.2167 195.329 71.9967 195.156 71.73C194.983 71.4633 194.896 71.1233 194.896 70.71C194.896 70.0967 195.109 69.62 195.536 69.28C195.969 68.9333 196.546 68.76 197.266 68.76C197.646 68.76 197.999 68.8 198.326 68.88C198.659 68.96 198.993 69.0733 199.326 69.22L198.916 70.25C198.616 70.1233 198.329 70.0233 198.056 69.95C197.789 69.8767 197.513 69.84 197.226 69.84C196.879 69.84 196.616 69.92 196.436 70.08C196.256 70.2333 196.166 70.4333 196.166 70.68C196.166 70.88 196.216 71.0467 196.316 71.18C196.416 71.3133 196.569 71.4367 196.776 71.55C196.989 71.6633 197.263 71.7933 197.596 71.94C197.976 72.1067 198.303 72.28 198.576 72.46C198.849 72.64 199.056 72.8567 199.196 73.11C199.343 73.3633 199.416 73.6767 199.416 74.05ZM209.202 72.36C209.202 73.5667 208.865 74.4767 208.192 75.09C207.518 75.6967 206.578 76 205.372 76H203.362V68.86H205.582C206.315 68.86 206.952 68.9933 207.492 69.26C208.038 69.5267 208.458 69.92 208.752 70.44C209.052 70.9533 209.202 71.5933 209.202 72.36ZM207.862 72.4C207.862 71.5467 207.665 70.92 207.272 70.52C206.885 70.12 206.322 69.92 205.582 69.92H204.642V74.93H205.412C207.045 74.93 207.862 74.0867 207.862 72.4ZM214.785 76H210.725V68.86H214.785V69.93H212.005V71.75H214.605V72.82H212.005V74.92H214.785V76ZM223.049 74.05C223.049 74.6833 222.819 75.1833 222.359 75.55C221.899 75.9167 221.262 76.1 220.449 76.1C219.662 76.1 218.995 75.9667 218.449 75.7V74.5C218.749 74.6333 219.079 74.7567 219.439 74.87C219.799 74.9767 220.165 75.03 220.539 75.03C220.965 75.03 221.279 74.9467 221.479 74.78C221.679 74.6133 221.779 74.3933 221.779 74.12C221.779 73.82 221.652 73.5833 221.399 73.41C221.145 73.2367 220.775 73.0467 220.289 72.84C219.995 72.7133 219.715 72.5633 219.449 72.39C219.182 72.2167 218.962 71.9967 218.789 71.73C218.615 71.4633 218.529 71.1233 218.529 70.71C218.529 70.0967 218.742 69.62 219.169 69.28C219.602 68.9333 220.179 68.76 220.899 68.76C221.279 68.76 221.632 68.8 221.959 68.88C222.292 68.96 222.625 69.0733 222.959 69.22L222.549 70.25C222.249 70.1233 221.962 70.0233 221.689 69.95C221.422 69.8767 221.145 69.84 220.859 69.84C220.512 69.84 220.249 69.92 220.069 70.08C219.889 70.2333 219.799 70.4333 219.799 70.68C219.799 70.88 219.849 71.0467 219.949 71.18C220.049 71.3133 220.202 71.4367 220.409 71.55C220.622 71.6633 220.895 71.7933 221.229 71.94C221.609 72.1067 221.935 72.28 222.209 72.46C222.482 72.64 222.689 72.8567 222.829 73.11C222.975 73.3633 223.049 73.6767 223.049 74.05ZM228.807 76L228.157 74.11H225.467L224.827 76H223.467L226.087 68.83H227.547L230.167 76H228.807ZM227.207 71.17C227.18 71.0767 227.14 70.95 227.087 70.79C227.033 70.63 226.98 70.4667 226.927 70.3C226.88 70.1267 226.843 69.9833 226.817 69.87C226.783 70.0033 226.74 70.1567 226.687 70.33C226.64 70.5033 226.593 70.6667 226.547 70.82C226.5 70.9733 226.467 71.09 226.447 71.17L225.817 73.01H227.827L227.207 71.17ZM236.766 73.48C236.766 73.9733 236.659 74.42 236.446 74.82C236.239 75.2133 235.922 75.5267 235.496 75.76C235.069 75.9867 234.529 76.1 233.876 76.1C232.949 76.1 232.246 75.86 231.766 75.38C231.286 74.8933 231.046 74.2533 231.046 73.46V68.86H232.326V73.33C232.326 73.9167 232.459 74.3433 232.726 74.61C232.992 74.8767 233.389 75.01 233.916 75.01C234.469 75.01 234.869 74.8667 235.116 74.58C235.369 74.2867 235.496 73.8667 235.496 73.32V68.86H236.766V73.48ZM235.636 66.72C235.529 66.84 235.372 66.9967 235.166 67.19C234.966 67.3833 234.756 67.5733 234.536 67.76C234.316 67.9467 234.126 68.1 233.966 68.22H233.126V68.09C233.226 67.97 233.342 67.8233 233.476 67.65C233.609 67.4767 233.739 67.3 233.866 67.12C233.999 66.9333 234.109 66.7667 234.196 66.62H235.636V66.72ZM244.416 72.36C244.416 73.5667 244.08 74.4767 243.406 75.09C242.733 75.6967 241.793 76 240.586 76H238.576V68.86H240.796C241.53 68.86 242.166 68.9933 242.706 69.26C243.253 69.5267 243.673 69.92 243.966 70.44C244.266 70.9533 244.416 71.5933 244.416 72.36ZM243.076 72.4C243.076 71.5467 242.88 70.92 242.486 70.52C242.1 70.12 241.536 69.92 240.796 69.92H239.856V74.93H240.626C242.26 74.93 243.076 74.0867 243.076 72.4ZM250 76H245.94V68.86H250V69.93H247.22V71.75H249.82V72.82H247.22V74.92H250V76Z" fill="white"/>
</g>
<defs>
<clipPath id="clip0">
<rect width="271" height="96" fill="white"/>
</clipPath>
</defs>
</svg>
